<svg id="Layer_1" data-name="Layer 1" xmlns="http://www.w3.org/2000/svg" viewBox="0 0 1743.53 1168"><defs><style>.cls-1{fill:#929497;}.cls-2{fill:#58595b;}.cls-3{fill:#e5e6e7;}.cls-4,.cls-8{fill:#6c6c6c;}.cls-5,.cls-6,.cls-7{font-size:18px;}.cls-5{fill:#fff;}.cls-5,.cls-6,.cls-8{font-family:DIN-Medium, DIN Medium;}.cls-6{letter-spacing:0.2em;}.cls-7{font-family:DIN-Black, DIN Black;letter-spacing:0.05em;}</style></defs><title>Artboard 2</title><circle cx="168.52" cy="168.52" r="67.41" transform="translate(-38.34 286.87) rotate(-74.78)"/><path class="cls-1" d="M72.85,307.26l25.4-44a118,118,0,0,1,0-189.51l-25.4-44a168.54,168.54,0,0,0,0,277.48Z"/><path class="cls-2" d="M121.59,60.27A118,118,0,0,1,285.72,155h50.79A168.59,168.59,0,0,0,96.19,16.28Z"/><path class="cls-3" d="M285.72,182a118,118,0,0,1-164.13,94.77l-25.4,44A168.61,168.61,0,0,0,336.51,182Z"/><circle cx="621.46" cy="343.52" r="50.59" transform="translate(126.79 852.96) rotate(-74.78)"/><path class="cls-1" d="M549.65,447.65l19.06-33a88.55,88.55,0,0,1,0-142.23l-19.06-33a126.49,126.49,0,0,0,0,208.25Z"/><circle cx="1617.46" cy="704.52" r="50.59" transform="translate(512.91 2080.2) rotate(-74.78)"/><path class="cls-2" d="M1582.23,623.28a88.58,88.58,0,0,1,123.18,71.12h38.12a126.52,126.52,0,0,0-180.36-104.14Z"/><circle cx="1446.46" cy="1041.52" r="50.59" transform="translate(61.64 2163.7) rotate(-74.78)"/><path class="cls-3" d="M1534.41,1051.64a88.57,88.57,0,0,1-123.18,71.13l-19.06,33a126.52,126.52,0,0,0,180.36-104.14Z"/><line class="cls-4" x1="763.23" y1="169.04" x2="880.23" y2="286.04"/><rect class="cls-4" x="820.73" y="144.81" width="2" height="165.46" transform="translate(79.78 647.69) rotate(-45)"/><polygon class="cls-4" points="1123.93 528.34 1122.52 526.92 1122.52 526.92 1006.93 411.34 1005.52 412.75 1121.1 528.34 1005.52 643.92 1006.93 645.34 1122.52 529.75 1122.52 529.75 1123.93 528.34 1123.93 528.34 1123.93 528.34"/><polygon class="cls-4" points="782.02 866.16 783.43 867.58 783.43 867.58 899.02 983.16 900.43 981.75 784.85 866.16 900.43 750.58 899.02 749.16 783.43 864.75 783.43 864.75 782.02 866.16 782.02 866.16 782.02 866.16"/><text class="cls-5" transform="translate(133.92 162.38)">BEYOND<tspan x="-13.79" y="21.6">SANCTIONS</tspan></text><text class="cls-6" transform="translate(395.9 174.38)">MULTI-FACETED APPROACH</text><text class="cls-7" transform="translate(726.85 335.04)">CHOOSE THE RIGHT BUSINESS RELATIONSHIPS<tspan class="cls-8"><tspan x="0" y="21.6">USE ENHANCED PARTNER AND SUPPLIER PRE-QUALIFICATION PROCESSES</tspan></tspan></text><text class="cls-7" transform="translate(726.85 694.4)">REQUIRE RESPONSIBLE BUSINESS PERFORMANCE IN CONTRACTS<tspan class="cls-8"><tspan x="0" y="21.6">FORMALISE PARTNERS’ AND SUPPLIERS’ COMMITMENTS TO RESPONSIBLE BUSINESS</tspan><tspan x="0" y="43.2">IN CONTRACTS</tspan></tspan></text><text class="cls-7" transform="translate(730.85 1030.39)">COLLABORATE AND SHARE KNOW-HOW<tspan class="cls-8"><tspan x="0" y="21.6">PROVIDE ONGOING ENGAGEMENT AND SUPPORT FOR PARTNERS </tspan><tspan x="0" y="43.2">AND SUPPLIERS TO IMPROVE AND MONITOR PERFORMANCE</tspan></tspan></text></svg>